<?xml version="1.0" encoding="UTF-8"?>
<svg id="_레이어_2" data-name="레이어 2" xmlns="http://www.w3.org/2000/svg" viewBox="0 0 555.26 300.46">
  <defs>
    <style>
      .cls-1 {
        fill: #d679e0;
      }

      .cls-2 {
        fill: #ffe6ff;
      }
    </style>
  </defs>
  <g id="_레이어_2-2" data-name="레이어 2">
    <g>
      <circle class="cls-2" cx="145.17" cy="156.79" r="142.67"/>
      <path d="M285.33,156.71c-.02,14.83-2.29,29.63-6.83,43.75s-10.86,26.48-19.09,38.14-18.05,21.93-29.26,30.59c-11.23,8.67-23.73,15.65-37.03,20.6-13.7,5.09-28.17,7.97-42.77,8.55-14.57.58-29.23-1.21-43.24-5.22-13.71-3.93-26.8-10.01-38.68-17.91s-22.32-17.36-31.26-28.27-16.4-23.38-21.77-36.57-8.87-27.93-9.99-42.52c-1.14-14.92.05-30.01,3.56-44.56s8.89-27.37,16.31-39.68,16.43-23.21,26.99-32.65,22.46-17.3,35.3-23.18,27.19-10.03,41.54-11.7,29.43-1.13,43.81,1.83,27.69,8,40.21,15.05,23.55,15.72,33.24,25.95,17.98,22.07,24.29,34.79,10.84,26.93,13.03,41.25c1.1,7.2,1.64,14.47,1.65,21.75,0,1.46,5,1.56,5,.15-.02-15.06-2.38-30.06-7.03-44.38s-11.14-26.97-19.61-38.81-18.61-22.25-30.11-30.99-24.5-15.85-38.17-20.78-29.38-8.09-44.59-8.68-30.73,1.15-45.49,5.28c-14.13,3.95-27.65,10.02-39.96,18.02s-23.06,17.61-32.3,28.72-16.84,23.68-22.34,37.09c-5.65,13.76-9.14,28.38-10.29,43.21s.05,30.54,3.68,45.32,9.13,27.82,16.74,40.3,16.96,23.54,27.81,33.11c10.86,9.58,23.19,17.51,36.41,23.44s28.25,10.1,43.11,11.79,31.1,1.15,46.32-1.89,28.5-8.02,41.44-15.13c12.69-6.98,24.3-15.9,34.35-26.33s18.47-22.31,24.94-35.23,11.14-27.36,13.41-41.91c1.14-7.32,1.7-14.73,1.71-22.14,0-1.46-5-1.57-5-.15Z"/>
    </g>
    <g>
      <circle class="cls-1" cx="158.5" cy="149.45" r="38.67"/>
      <path d="M194.84,148.78c-.07,15.58-9.87,29.87-24.36,35.57-7.05,2.77-15.12,3.38-22.45,1.38-6.93-1.89-13.03-6.12-17.53-11.71-9.82-12.24-10.96-29.76-3.01-43.25,7.84-13.3,23.64-20.98,38.94-18.16s25.75,15.76,27.96,30.31c.3,1.94.43,3.9.44,5.87,0,1.24,4.66,2.73,4.65,1.34-.08-17.08-11.46-31.96-27.32-37.79-8.08-2.97-17-3.69-25.37-1.49-7.88,2.07-14.93,6.53-20.18,12.75-10.82,12.81-12,31.59-3.21,45.79s27.11,22.34,43.8,19.34c16.23-2.92,29.34-16.13,31.83-32.48.31-2.03.44-4.07.45-6.12,0-1.23-4.65-2.74-4.65-1.34Z"/>
    </g>
    <g>
      <circle class="cls-2" cx="405.83" cy="149.45" r="147.33"/>
      <path d="M551.07,148.48c-.02,15.3-2.35,30.55-7.08,45.1-4.53,13.96-11.17,27.27-19.67,39.24s-18.69,22.58-30.26,31.51-24.54,16.13-38.28,21.23-29.27,8.31-44.45,8.96c-15.3.66-30.64-1.07-45.4-5.16s-27.68-10.05-39.96-18.08-23-17.64-32.26-28.77-16.83-23.81-22.35-37.24c-5.7-13.89-9.16-28.64-10.34-43.6s.02-30.93,3.67-45.85,9.21-28.19,16.84-40.86c7.54-12.51,17-23.86,27.9-33.6s23.21-17.81,36.49-23.9,28.27-10.4,43.19-12.18c15.29-1.82,30.84-1.27,45.94,1.72s28.67,8.05,41.69,15.23c12.61,6.95,24.15,15.87,34.13,26.25s18.52,22.4,24.98,35.36c6.64,13.31,11.19,27.59,13.49,42.29,1.15,7.4,1.72,14.87,1.73,22.35,0,1.21.88,2.37,1.97,2.86.83.36,2.23.31,2.22-.92-.02-15.7-2.45-31.28-7.26-46.23-4.63-14.37-11.5-28.04-20.22-40.37-8.74-12.35-19.33-23.37-31.3-32.62s-25.25-16.63-39.37-21.85c-14.61-5.41-29.99-8.51-45.56-9.2-15.68-.7-31.45,1.1-46.57,5.3-14.57,4.04-28.41,10.37-41.08,18.61s-23.81,18.2-33.34,29.71-17.38,24.51-23.07,38.37-9.44,29.44-10.63,44.8c-1.22,15.7.03,31.63,3.74,46.93s9.49,29.06,17.36,42.14,17.49,24.61,28.71,34.61,24.01,18.46,37.76,24.75,28.93,10.63,44.18,12.45,31.65,1.34,47.16-1.76c14.92-2.98,29.34-8.19,42.66-15.56s25.13-16.46,35.51-27.28,19.05-23.13,25.73-36.47c6.84-13.65,11.5-28.37,13.85-43.46,1.18-7.56,1.75-15.21,1.76-22.86,0-1.21-.88-2.37-1.97-2.86-.83-.37-2.22-.3-2.22.92Z"/>
    </g>
    <g>
      <circle class="cls-1" cx="400.5" cy="153.45" r="43.33"/>
      <path d="M441.63,152.68c-.07,17.4-11,33.2-27.29,39.36s-34.63,1.35-45.49-11.66c-11.14-13.35-12.46-32.8-3.56-47.69,8.93-14.95,26.67-22.92,43.77-19.7s29.43,16.76,32.08,33.33c.34,2.11.48,4.23.49,6.37,0,1.23.99,2.36,2.13,2.75.95.32,2.28.02,2.28-1.2-.08-19.11-12.27-36.54-30.14-43.29-17.72-6.7-38.39-1.47-50.55,13.1s-13.69,35.91-3.89,52.15,29.34,25.58,48.29,21.92c18.38-3.54,32.8-18.54,35.74-36.99.36-2.28.54-4.58.55-6.89,0-1.23-1-2.36-2.13-2.75-.95-.33-2.27-.02-2.28,1.2Z"/>
    </g>
  </g>
</svg>